<mxfile host="app.diagrams.net" modified="2023-04-17T16:09:52.535Z" agent="Mozilla/5.0 (Windows NT 10.0; Win64; x64) AppleWebKit/537.36 (KHTML, like Gecko) Chrome/112.0.0.0 Safari/537.36" etag="aKJDx8B4hucrAg0mht3j" version="21.1.8" type="google">
  <diagram name="Page-1" id="me6G-MOYc58HABu_oh2D">
    <mxGraphModel grid="1" page="1" gridSize="10" guides="1" tooltips="1" connect="1" arrows="1" fold="1" pageScale="1" pageWidth="1100" pageHeight="850" math="0" shadow="0">
      <root>
        <mxCell id="0" />
        <mxCell id="1" parent="0" />
        <mxCell id="H9Mqh5JO7XyfZtJ1tM9m-1" value="" style="rounded=0;whiteSpace=wrap;html=1;" vertex="1" parent="1">
          <mxGeometry x="60" y="20" width="970" height="130" as="geometry" />
        </mxCell>
        <mxCell id="H9Mqh5JO7XyfZtJ1tM9m-2" value="" style="rounded=0;whiteSpace=wrap;html=1;" vertex="1" parent="1">
          <mxGeometry x="60" y="180" width="250" height="220" as="geometry" />
        </mxCell>
        <mxCell id="H9Mqh5JO7XyfZtJ1tM9m-3" value="&lt;font style=&quot;font-size: 18px;&quot;&gt;About Me&lt;/font&gt;" style="rounded=0;whiteSpace=wrap;html=1;" vertex="1" parent="1">
          <mxGeometry x="60" y="440" width="250" height="360" as="geometry" />
        </mxCell>
        <mxCell id="H9Mqh5JO7XyfZtJ1tM9m-4" value="" style="rounded=0;whiteSpace=wrap;html=1;" vertex="1" parent="1">
          <mxGeometry x="360" y="180" width="370" height="620" as="geometry" />
        </mxCell>
        <mxCell id="H9Mqh5JO7XyfZtJ1tM9m-5" value="" style="rounded=0;whiteSpace=wrap;html=1;" vertex="1" parent="1">
          <mxGeometry x="780" y="180" width="250" height="360" as="geometry" />
        </mxCell>
        <mxCell id="H9Mqh5JO7XyfZtJ1tM9m-6" value="&lt;font style=&quot;font-size: 24px;&quot;&gt;Header&lt;/font&gt;" style="text;html=1;strokeColor=none;fillColor=none;align=center;verticalAlign=middle;whiteSpace=wrap;rounded=0;" vertex="1" parent="1">
          <mxGeometry x="420" y="30" width="220" height="30" as="geometry" />
        </mxCell>
        <mxCell id="H9Mqh5JO7XyfZtJ1tM9m-10" value="" style="rounded=0;whiteSpace=wrap;html=1;" vertex="1" parent="1">
          <mxGeometry x="60" y="30" width="390" height="105" as="geometry" />
        </mxCell>
        <mxCell id="H9Mqh5JO7XyfZtJ1tM9m-7" value="" style="rounded=0;whiteSpace=wrap;html=1;" vertex="1" parent="1">
          <mxGeometry x="80" y="60" width="120" height="60" as="geometry" />
        </mxCell>
        <mxCell id="H9Mqh5JO7XyfZtJ1tM9m-8" value="" style="rounded=0;whiteSpace=wrap;html=1;" vertex="1" parent="1">
          <mxGeometry x="200" y="60" width="120" height="60" as="geometry" />
        </mxCell>
        <mxCell id="H9Mqh5JO7XyfZtJ1tM9m-9" value="" style="rounded=0;whiteSpace=wrap;html=1;" vertex="1" parent="1">
          <mxGeometry x="320" y="60" width="120" height="60" as="geometry" />
        </mxCell>
        <mxCell id="H9Mqh5JO7XyfZtJ1tM9m-11" value="&lt;font style=&quot;font-size: 14px;&quot;&gt;Navigation bar&lt;/font&gt;" style="text;html=1;strokeColor=none;fillColor=none;align=center;verticalAlign=middle;whiteSpace=wrap;rounded=0;" vertex="1" parent="1">
          <mxGeometry x="155" y="30" width="185" height="30" as="geometry" />
        </mxCell>
        <mxCell id="H9Mqh5JO7XyfZtJ1tM9m-12" value="&lt;font style=&quot;font-size: 18px;&quot;&gt;Home&lt;/font&gt;" style="text;html=1;strokeColor=none;fillColor=none;align=center;verticalAlign=middle;whiteSpace=wrap;rounded=0;" vertex="1" parent="1">
          <mxGeometry x="110" y="75" width="60" height="30" as="geometry" />
        </mxCell>
        <mxCell id="H9Mqh5JO7XyfZtJ1tM9m-13" value="&lt;font style=&quot;font-size: 18px;&quot;&gt;Notifications&lt;/font&gt;" style="text;html=1;strokeColor=none;fillColor=none;align=center;verticalAlign=middle;whiteSpace=wrap;rounded=0;" vertex="1" parent="1">
          <mxGeometry x="231" y="75" width="60" height="30" as="geometry" />
        </mxCell>
        <mxCell id="H9Mqh5JO7XyfZtJ1tM9m-14" value="&lt;font style=&quot;font-size: 18px;&quot;&gt;Messages&lt;/font&gt;" style="text;html=1;strokeColor=none;fillColor=none;align=center;verticalAlign=middle;whiteSpace=wrap;rounded=0;" vertex="1" parent="1">
          <mxGeometry x="346" y="75" width="60" height="30" as="geometry" />
        </mxCell>
        <mxCell id="H9Mqh5JO7XyfZtJ1tM9m-15" value="&lt;font style=&quot;font-size: 18px;&quot;&gt;SearchBar&lt;/font&gt;" style="rounded=1;whiteSpace=wrap;html=1;" vertex="1" parent="1">
          <mxGeometry x="720" y="60" width="120" height="60" as="geometry" />
        </mxCell>
        <mxCell id="H9Mqh5JO7XyfZtJ1tM9m-16" value="&lt;font style=&quot;font-size: 18px;&quot;&gt;TweetButton&lt;/font&gt;" style="rounded=1;whiteSpace=wrap;html=1;" vertex="1" parent="1">
          <mxGeometry x="880" y="60" width="120" height="60" as="geometry" />
        </mxCell>
        <mxCell id="H9Mqh5JO7XyfZtJ1tM9m-18" value="&lt;font style=&quot;font-size: 18px;&quot;&gt;Profile picture&lt;/font&gt;" style="rounded=1;whiteSpace=wrap;html=1;" vertex="1" parent="1">
          <mxGeometry x="80" y="220" width="80" height="70" as="geometry" />
        </mxCell>
        <mxCell id="H9Mqh5JO7XyfZtJ1tM9m-19" value="&lt;font style=&quot;font-size: 18px;&quot;&gt;Profile&lt;/font&gt;" style="text;html=1;strokeColor=none;fillColor=none;align=center;verticalAlign=middle;whiteSpace=wrap;rounded=0;" vertex="1" parent="1">
          <mxGeometry x="140" y="180" width="90" height="30" as="geometry" />
        </mxCell>
        <mxCell id="H9Mqh5JO7XyfZtJ1tM9m-20" value="&lt;font style=&quot;font-size: 18px;&quot;&gt;Name&lt;/font&gt;" style="text;html=1;strokeColor=none;fillColor=none;align=center;verticalAlign=middle;whiteSpace=wrap;rounded=0;" vertex="1" parent="1">
          <mxGeometry x="190" y="250" width="60" height="30" as="geometry" />
        </mxCell>
        <mxCell id="H9Mqh5JO7XyfZtJ1tM9m-22" value="&lt;font style=&quot;font-size: 14px;&quot;&gt;Link&lt;/font&gt;" style="rounded=1;whiteSpace=wrap;html=1;" vertex="1" parent="1">
          <mxGeometry x="70" y="310" width="70" height="40" as="geometry" />
        </mxCell>
        <mxCell id="H9Mqh5JO7XyfZtJ1tM9m-23" value="&lt;font style=&quot;font-size: 14px;&quot;&gt;Link&lt;/font&gt;" style="rounded=1;whiteSpace=wrap;html=1;" vertex="1" parent="1">
          <mxGeometry x="150" y="310" width="70" height="40" as="geometry" />
        </mxCell>
        <mxCell id="H9Mqh5JO7XyfZtJ1tM9m-24" value="&lt;font style=&quot;font-size: 14px;&quot;&gt;Link&lt;/font&gt;" style="rounded=1;whiteSpace=wrap;html=1;" vertex="1" parent="1">
          <mxGeometry x="229" y="309" width="70" height="40" as="geometry" />
        </mxCell>
        <mxCell id="H9Mqh5JO7XyfZtJ1tM9m-27" value="&lt;font style=&quot;font-size: 18px;&quot;&gt;Post&lt;/font&gt;" style="rounded=0;whiteSpace=wrap;html=1;" vertex="1" parent="1">
          <mxGeometry x="406" y="200" width="120" height="60" as="geometry" />
        </mxCell>
        <mxCell id="H9Mqh5JO7XyfZtJ1tM9m-29" value="" style="rounded=0;whiteSpace=wrap;html=1;" vertex="1" parent="1">
          <mxGeometry x="390" y="310" width="310" height="400" as="geometry" />
        </mxCell>
        <mxCell id="H9Mqh5JO7XyfZtJ1tM9m-30" value="&lt;font style=&quot;font-size: 18px;&quot;&gt;News Feed&lt;/font&gt;" style="text;html=1;strokeColor=none;fillColor=none;align=center;verticalAlign=middle;whiteSpace=wrap;rounded=0;" vertex="1" parent="1">
          <mxGeometry x="440" y="320" width="210" height="30" as="geometry" />
        </mxCell>
        <mxCell id="H9Mqh5JO7XyfZtJ1tM9m-31" value="&lt;font style=&quot;font-size: 18px;&quot;&gt;Post&lt;/font&gt;" style="rounded=0;whiteSpace=wrap;html=1;" vertex="1" parent="1">
          <mxGeometry x="480" y="365" width="120" height="60" as="geometry" />
        </mxCell>
        <mxCell id="H9Mqh5JO7XyfZtJ1tM9m-32" value="&lt;font style=&quot;font-size: 18px;&quot;&gt;Post&lt;/font&gt;" style="rounded=0;whiteSpace=wrap;html=1;" vertex="1" parent="1">
          <mxGeometry x="480" y="441" width="120" height="60" as="geometry" />
        </mxCell>
        <mxCell id="H9Mqh5JO7XyfZtJ1tM9m-34" value="&lt;font style=&quot;font-size: 18px;&quot;&gt;Post&lt;/font&gt;" style="rounded=0;whiteSpace=wrap;html=1;" vertex="1" parent="1">
          <mxGeometry x="480" y="518" width="120" height="60" as="geometry" />
        </mxCell>
        <mxCell id="H9Mqh5JO7XyfZtJ1tM9m-35" value="&lt;font style=&quot;font-size: 18px;&quot;&gt;Profiles list&lt;/font&gt;" style="text;html=1;strokeColor=none;fillColor=none;align=center;verticalAlign=middle;whiteSpace=wrap;rounded=0;" vertex="1" parent="1">
          <mxGeometry x="820" y="200" width="170" height="30" as="geometry" />
        </mxCell>
        <mxCell id="H9Mqh5JO7XyfZtJ1tM9m-36" value="&lt;font style=&quot;font-size: 18px;&quot;&gt;Profile&lt;/font&gt;" style="rounded=0;whiteSpace=wrap;html=1;" vertex="1" parent="1">
          <mxGeometry x="845" y="249" width="120" height="60" as="geometry" />
        </mxCell>
        <mxCell id="H9Mqh5JO7XyfZtJ1tM9m-37" value="&lt;font style=&quot;font-size: 18px;&quot;&gt;Profile&lt;/font&gt;" style="rounded=0;whiteSpace=wrap;html=1;" vertex="1" parent="1">
          <mxGeometry x="847" y="324" width="120" height="60" as="geometry" />
        </mxCell>
        <mxCell id="H9Mqh5JO7XyfZtJ1tM9m-38" value="&lt;font style=&quot;font-size: 18px;&quot;&gt;Profile&lt;/font&gt;" style="rounded=0;whiteSpace=wrap;html=1;" vertex="1" parent="1">
          <mxGeometry x="848" y="397" width="120" height="60" as="geometry" />
        </mxCell>
      </root>
    </mxGraphModel>
  </diagram>
</mxfile>
